<svg width="1200" height="240" viewBox="0 0 1200 240" fill="none" xmlns="http://www.w3.org/2000/svg" role="img" aria-labelledby="title desc">
  <title id="title">TaskFlow Pro</title><desc id="desc">Product-focused React application with Kanban, command palette, analytics, subtasks, themes, and local persistence</desc>
  <defs><linearGradient id="bg" x1="0" y1="0" x2="1200" y2="240"><stop stop-color="#102038"/><stop offset=".55" stop-color="#101B31"/><stop offset="1" stop-color="#082D31"/></linearGradient><linearGradient id="accent" x1="60" y1="0" x2="1140" y2="0"><stop stop-color="#38BDF8"/><stop offset="1" stop-color="#34D399"/></linearGradient></defs>
  <rect width="1200" height="240" rx="24" fill="url(#bg)"/><rect x="1" y="1" width="1198" height="238" rx="23" stroke="#FFF" stroke-opacity=".1" stroke-width="2"/>
  <text x="64" y="53" fill="#67E8F9" font-family="Inter,Segoe UI,Arial" font-size="14" font-weight="700" letter-spacing="2.4">PRODUCT ENGINEERING</text>
  <text x="64" y="100" fill="#F8FAFC" font-family="Inter,Segoe UI,Arial" font-size="32" font-weight="750">TaskFlow Pro — productivity with polish</text>
  <text x="64" y="135" fill="#CBD5E1" font-family="Inter,Segoe UI,Arial" font-size="18">A keyboard-friendly React workspace built around useful interactions, not just CRUD.</text>
  <text x="64" y="187" fill="#67E8F9" font-family="Inter,Segoe UI,Arial" font-size="14" font-weight="650">KANBAN</text><text x="142" y="187" fill="#475569" font-family="Arial" font-size="14">•</text><text x="164" y="187" fill="#A7F3D0" font-family="Inter,Segoe UI,Arial" font-size="14" font-weight="650">COMMAND PALETTE</text><text x="310" y="187" fill="#475569" font-family="Arial" font-size="14">•</text><text x="332" y="187" fill="#67E8F9" font-family="Inter,Segoe UI,Arial" font-size="14" font-weight="650">ANALYTICS</text><text x="423" y="187" fill="#475569" font-family="Arial" font-size="14">•</text><text x="445" y="187" fill="#A7F3D0" font-family="Inter,Segoe UI,Arial" font-size="14" font-weight="650">LOCAL-FIRST</text>
  <g transform="translate(800 35)"><rect width="326" height="163" rx="14" fill="#FFF" fill-opacity=".055" stroke="#38BDF8" stroke-opacity=".28"/><rect x="17" y="16" width="292" height="28" rx="8" fill="#FFF" fill-opacity=".07"/><circle cx="32" cy="30" r="4" fill="#38BDF8"/><rect x="48" y="26" width="95" height="8" rx="4" fill="#FFF" fill-opacity=".18"/><g transform="translate(17 60)"><rect width="88" height="84" rx="9" fill="#38BDF8" fill-opacity=".08"/><rect x="102" width="88" height="84" rx="9" fill="#A78BFA" fill-opacity=".08"/><rect x="204" width="88" height="84" rx="9" fill="#34D399" fill-opacity=".08"/><path d="M12 16H70M12 32H58M114 16H174M114 32H160M216 16H275M216 32H261" stroke="#FFF" stroke-opacity=".25" stroke-width="6" stroke-linecap="round"/><rect x="12" y="51" width="62" height="22" rx="6" fill="#38BDF8" fill-opacity=".2"/><rect x="114" y="51" width="62" height="22" rx="6" fill="#A78BFA" fill-opacity=".2"/><rect x="216" y="51" width="62" height="22" rx="6" fill="#34D399" fill-opacity=".2"/></g></g>
  <path d="M64 220H1136" stroke="url(#accent)" stroke-width="3" stroke-linecap="round"/>
</svg>
